.
..............................Site Info...........................

 -   http://www.scenetime.com  *_*    

Scenetime .Always on time . friendly online private torrent community ..

     We care to share . Join us on  http://www.scenetime.com 

    Be the first to get new release at  http://www.scenetime.com

        Seed back for speed


...................................NFO:.................................................[IMG]http://i.imgur.com/qD9lu.gif[/IMG]

 
TITLE: 

Lawless 2012 CAM XViD - INSPiRAL

IMDB: 
 
http://www.imdb.com/title/tt1212450/


SOURCES:

VIDEO -  HP THANKS
AUDIO -  HP THANKS
SUBS  - None Add

STATS:

Video
ID                               : 0
Format                           : MPEG-4 Visual
Format profile                   : Advanced Simple@L5
Format settings, BVOP            : 2
Format settings, QPel            : No
Format settings, GMC             : No warppoints
Format settings, Matrix          : Default (MPEG)
Muxing mode                      : Packed bitstream
Codec ID                         : XVID
Codec ID/Hint                    : XviD
Duration                         : 1h 49mn
Bit rate                         : 1 662 Kbps
Width                            : 608 pixels
Height                           : 304 pixels
Display aspect ratio             : 2.000
Frame rate                       : 29.970 fps
Color space                      : YUV
Chroma subsampling               : 4:2:0
Bit depth                        : 8 bits
Scan type                        : Progressive
Compression mode                 : Lossy
Bits/(Pixel*Frame)               : 0.300
Stream size                      : 1.27 GiB (92%)
Writing library                  : XviD 64

Audio
ID                               : 1
Format                           : MPEG Audio
Format version                   : Version 1
Format profile                   : Layer 3
Mode                             : Joint stereo
Mode extension                   : MS Stereo
Codec ID                         : 55
Codec ID/Hint                    : MP3
Duration                         : 1h 49mn
Bit rate mode                    : Constant
Bit rate                         : 128 Kbps
Channel(s)                       : 2 channels
Sampling rate                    : 48.0 KHz
Compression mode                 : Lossy
Stream size                      : 100.0 MiB (7%)
Alignment                        : Split accross interleaves
Interleave, duration             : 33 ms (1.00 video frame)
Interleave, preload duration     : 500 ms




NOTES:

First hats off to HP for having some balls of steel and then sharing this with us all :clap:
Best of all ...doesn't have the massive ego some have with doing this and keeps his/hers head down ;-)

Video was really nice but had a really low res and even lower once all cropped ....its only when you upscale
to a decent size you start to see faults ....but thats the same with anything you upscale.
Anyway ...cleaned the video and have to use a HQsmoother to remove some of the noise it had,then tweaked the colouring
before finally adding some life back into it.

Audio was decent cam audio but quite and had some noise in the channels ..so cleaned it the best we could and pumped up 
the DBs a tad and then remuxed.

Enjoy folks and more to follow soon :)


SCREENS:

[img]http://i.imgrz.com/EbAq5.png[/img] 
[img]http://i.imgrz.com/WtHvE.png[/img] 
[img]http://i.imgrz.com/W7FD8.png[/img] 
[img]http://i.imgrz.com/rKoNm.png[/img] 
[img]http://i.imgrz.com/Q0ahi.png[/img] 
[img]http://i.imgrz.com/2xIE4.png[/img] 
[img]http://i.imgrz.com/c6a3V.png[/img] 

GREETZ: 

Past,Present and Future

[IMG]http://i.imgur.com/qD9lu.gif[/IMG]